Coordinates
version=1
nRows=13
nColumns=34
inDegrees=yes

Units are S.I. units (second, meters, Newtons, ...)
If the header above contains a line with 'inDegrees', this indicates whether rotational values are in degrees (yes) or radians (no).

endheader
time	pelvis_tilt	pelvis_list	pelvis_rotation	pelvis_tx	pelvis_ty	pelvis_tz	hip_flexion_r	hip_adduction_r	hip_rotation_r	knee_angle_r	ankle_angle_r	subtalar_angle_r	mtp_angle_r	hip_flexion_l	hip_adduction_l	hip_rotation_l	knee_angle_l	ankle_angle_l	subtalar_angle_l	mtp_angle_l	lumbar_extension	lumbar_bending	lumbar_rotation	arm_flex_r	arm_add_r	arm_rot_r	elbow_flex_r	pro_sup_r	arm_flex_l	arm_add_l	arm_rot_l	elbow_flex_l	pro_sup_l
      1.06666670	     -2.12713793	      2.16486133	     -4.19895800	      1.78732403	      0.88946289	     -0.16516823	      1.25445334	     -6.01190028	      1.03420271	      0.00000000	     -0.36983983	    -22.23451068	      0.00000000	      0.51831782	     -1.01484201	     -9.14826686	      0.00000000	      0.15902510	     -7.87159943	      0.00000000	    -11.37062303	     -0.51852843	     -2.15890690	     20.70802999	      0.73505856	     38.33225679	     85.40772391	     90.99744817	     18.50056184	     -3.13897669	     27.00296223	     82.40624291	     75.52871236
      1.08333330	     -2.12962162	      2.16449841	     -4.20146520	      1.78731295	      0.88968352	     -0.16510388	      1.25225396	     -6.01237309	      1.03440820	      0.00000000	     -0.36949629	    -22.23466641	      0.00000000	      0.51849155	     -1.01500359	     -9.14829325	      0.00000000	      0.15914292	     -7.87171752	      0.00000000	    -11.37090811	     -0.51881045	     -2.16079263	     20.70750566	      0.73430205	     38.33189713	     85.40786061	     90.99745693	     18.49973213	     -3.13755699	     27.00382798	     82.40593514	     75.52884914
      1.10000000	     -2.12696691	      2.15160202	     -4.33516022	      1.78740137	      0.88969706	     -0.16503739	      1.25545229	     -5.99709412	      1.04632385	      0.00000000	     -0.33877997	    -22.24873241	      0.00000000	      0.48276947	     -1.02990573	     -9.15828463	      0.01357588	      0.16297517	     -7.87937288	      0.00000000	    -11.41715355	     -0.56301342	     -2.29509247	     20.66341641	      0.68732279	     38.30969133	     85.41413840	     90.99795099	     18.41663411	     -3.04106140	     27.07188534	     82.37125202	     75.53751052
      1.11666670	     -2.12653736	      2.15383320	     -4.33627110	      1.78742302	      0.88918546	     -0.16519444	      1.25069315	     -5.99581572	      1.04680752	      0.00000000	     -0.33827155	    -22.24886315	      0.00000000	      0.48538023	     -1.03145228	     -9.15924079	      0.01174107	      0.16327662	     -7.87988362	      0.00000000	    -11.41855742	     -0.56438924	     -2.29596397	     20.66310862	      0.68732190	     38.30937401	     85.41437476	     90.99796813	     18.41459016	     -3.04005112	     27.07297197	     82.37026585	     75.53768229
      1.13333330	     -2.10672285	      2.13752184	     -4.35137127	      1.78756264	      0.88876676	     -0.16536679	      1.20319572	     -5.98873514	      1.05516672	      0.00000000	     -0.26055168	    -22.29923490	      0.00000000	      0.46562558	     -1.04020655	     -9.26410038	      0.01439946	      0.20737578	     -7.95079745	      0.00000000	    -11.52757827	     -0.68970715	     -2.45046397	     20.64205709	      0.68237796	     38.26443255	     85.45181357	     90.99910475	     18.19938293	     -2.88093581	     27.21878047	     82.27529357	     75.55691123
      1.15000000	     -2.10613027	      2.13448986	     -4.35253911	      1.78750152	      0.88825186	     -0.16522720	      1.20066649	     -5.99029847	      1.05466759	      0.00000000	     -0.25997393	    -22.29974290	      0.00000000	      0.46629172	     -1.03827401	     -9.26429277	      0.01466029	      0.20751495	     -7.95093558	      0.00000000	    -11.52791502	     -0.68977712	     -2.45083684	     20.64215268	      0.68272131	     38.26408976	     85.45220315	     90.99911647	     18.19880827	     -2.88043827	     27.21940384	     82.27471799	     75.55706127
      1.16666670	     -2.10163681	      2.13405163	     -4.35560724	      1.78747594	      0.88775758	     -0.16511128	      1.19939072	     -5.99068164	      1.05339756	      0.00000000	     -0.25897385	    -22.30077404	      0.00000000	      0.46956046	     -1.03789675	     -9.26457631	      0.01386814	      0.20787468	     -7.95128277	      0.00000000	    -11.52876480	     -0.69045972	     -2.45180245	     20.64237331	      0.68333408	     38.26364504	     85.45273201	     90.99912776	     18.19746659	     -2.87926331	     27.22071590	     82.27392984	     75.55725622
      1.18333330	     -2.08224754	      2.13751764	     -4.50197689	      1.78744330	      0.88762592	     -0.16502981	      1.24101179	     -5.98700240	      0.96230789	      0.00000000	     -0.18961454	    -22.37697928	      0.00000000	      0.47123778	     -1.04845536	     -9.30238162	      0.07098078	      0.23377723	     -7.98974378	      0.00000000	    -11.59795576	     -0.78125057	     -2.50145699	     20.66607092	      0.74927225	     38.24120210	     85.48920832	     90.99996281	     18.09753284	     -2.80309432	     27.31624364	     82.22800733	     75.56935519
      1.20000000	     -2.07604671	      2.14106713	     -4.50201227	      1.78754025	      0.88784839	     -0.16523630	      1.24187693	     -5.98738232	      0.96192097	      0.00000000	     -0.18898851	    -22.37753828	      0.00000000	      0.47635934	     -1.05252205	     -9.30345907	      0.06863498	      0.23436518	     -7.99062719	      0.00000000	    -11.59826507	     -0.78266003	     -2.50091520	     20.66614362	      0.75068457	     38.24118114	     85.48972012	     90.99999234	     18.09618608	     -2.80274742	     27.31738080	     82.22757941	     75.56953226
      1.21666670	     -2.07717623	      2.14529506	     -4.52443510	      1.78756886	      0.88833007	     -0.16535747	      1.26895113	     -5.99725047	      0.86530398	      0.00000000	     -0.12782485	    -22.44599721	      0.00000000	      0.53852089	     -1.06561593	     -9.42812916	      0.13867788	      0.26979304	     -8.08346493	      0.00000000	    -11.71543992	     -0.92665695	     -2.50218952	     20.62508913	      0.89610659	     38.24751331	     85.52889528	     91.00378272	     17.90760254	     -2.71695848	     27.49402454	     82.17479345	     75.59211571
      1.23333330	     -2.07416758	      2.14459304	     -4.52653587	      1.78775272	      0.88874946	     -0.16542906	      1.27012638	     -5.99999752	      0.86491152	      0.00000000	     -0.12765248	    -22.44622772	      0.00000000	      0.54130020	     -1.06700776	     -9.42832166	      0.13846107	      0.26980276	     -8.08378577	      0.00000000	    -11.71467962	     -0.92679829	     -2.50249544	     20.62445339	      0.89683477	     38.24745762	     85.52921701	     91.00381830	     17.90779709	     -2.71672417	     27.49505278	     82.17498231	     75.59232155
      1.25000000	     -2.06863676	      2.15494287	     -4.63242943	      1.78804880	      0.88894291	     -0.16547518	      1.28782870	     -6.03578988	      0.82908105	      0.00000000	     -0.12309457	    -22.45399405	      0.00000000	      0.53993604	     -1.04792327	     -9.44488776	      0.20791293	      0.26306852	     -8.10032058	      0.00000000	    -11.70299320	     -0.93291154	     -2.52192879	     20.55896475	      0.93963217	     38.25830012	     85.53898533	     91.00642193	     17.87723242	     -2.69291737	     27.57158674	     82.17820431	     75.60438393
      1.26666670	     -2.06781934	      2.15282071	     -4.63203274	      1.78815231	      0.88891116	     -0.16546518	      1.28826036	     -6.03701064	      0.82898402	      0.00000000	     -0.12312691	    -22.45390897	      0.00000000	      0.54088382	     -1.04723784	     -9.44535426	      0.20805659	      0.26310609	     -8.10066986	      0.00000000	    -11.70326459	     -0.93343845	     -2.52147481	     20.55843294	      0.94038663	     38.25851823	     85.53909260	     91.00645650	     17.87669305	     -2.69303129	     27.57237096	     82.17817791	     75.60451548
